<?xml version="1.0" encoding="UTF-8"?>
<!DOCTYPE svg PUBLIC "-//W3C//DTD SVG 1.1//EN" "http://www.w3.org/Graphics/SVG/1.1/DTD/svg11.dtd">
<svg xmlns="http://www.w3.org/2000/svg" version="1.1" width="32px" height="32px" style="shape-rendering:geometricPrecision; text-rendering:geometricPrecision; image-rendering:optimizeQuality; fill-rule:evenodd; clip-rule:evenodd" xmlns:xlink="http://www.w3.org/1999/xlink">
<g><path style="opacity:0.994" fill="#050505" d="M 0.5,-0.5 C 10.5,-0.5 20.5,-0.5 30.5,-0.5C 30.5,0.166667 30.8333,0.5 31.5,0.5C 31.5,10.5 31.5,20.5 31.5,30.5C 30.8333,30.5 30.5,30.8333 30.5,31.5C 20.5,31.5 10.5,31.5 0.5,31.5C 0.5,30.8333 0.166667,30.5 -0.5,30.5C -0.5,20.5 -0.5,10.5 -0.5,0.5C 0.166667,0.5 0.5,0.166667 0.5,-0.5 Z"/></g>
<g><path style="opacity:1" fill="#f4f4f4" d="M 16.5,12.5 C 16.5,14.5 16.5,16.5 16.5,18.5C 12.4889,24.6221 7.98891,24.9554 3,19.5C 0.788948,13.0315 2.95561,9.0315 9.5,7.5C 12.6868,8.02662 15.0201,9.69329 16.5,12.5 Z"/></g>
<g><path style="opacity:1" fill="#f2f2f2" d="M 18.5,18.5 C 18.5,16.5 18.5,14.5 18.5,12.5C 18.9651,9.52655 20.6318,8.35989 23.5,9C 26.1667,13.3333 26.1667,17.6667 23.5,22C 20.461,22.8128 18.7944,21.6461 18.5,18.5 Z"/></g>
<g><path style="opacity:1" fill="#efefef" d="M 26.5,9.5 C 27.7943,11.0478 28.4609,13.0478 28.5,15.5C 28.1667,17.5 27.8333,19.5 27.5,21.5C 26.5091,17.5546 26.1758,13.5546 26.5,9.5 Z"/></g>
<g><path style="opacity:1" fill="#797979" d="M 16.5,12.5 C 17.1667,12.5 17.8333,12.5 18.5,12.5C 18.5,14.5 18.5,16.5 18.5,18.5C 17.8333,18.5 17.1667,18.5 16.5,18.5C 16.5,16.5 16.5,14.5 16.5,12.5 Z"/></g>
</svg>
